<mxfile host="app.diagrams.net" agent="Mozilla/5.0 (X11; Linux x86_64) AppleWebKit/537.36 (KHTML, like Gecko) Chrome/139.0.0.0 Safari/537.36" version="28.1.2">
  <diagram name="Page-1" id="accurate-cache-architecture">
    <mxGraphModel dx="1426" dy="764" grid="1" gridSize="10" guides="1" tooltips="1" connect="1" arrows="1" fold="1" page="1" pageScale="1" pageWidth="827" pageHeight="1169" math="0" shadow="0">
      <root>
        <mxCell id="0" />
        <mxCell id="1" parent="0" />
        <mxCell id="main-container" value="" style="rounded=0;whiteSpace=wrap;html=1;strokeColor=#333333;strokeWidth=2;" parent="1" vertex="1">
          <mxGeometry x="180" y="80" width="500" height="650" as="geometry" />
        </mxCell>
        <mxCell id="main-title" value="&lt;b&gt;&lt;font style=&quot;font-size: 16px;&quot;&gt;Architecture mémoire m_cache&lt;/font&gt;&lt;/b&gt;" style="text;html=1;align=center;verticalAlign=middle;whiteSpace=wrap;rounded=0;" parent="1" vertex="1">
          <mxGeometry x="280" y="50" width="300" height="25" as="geometry" />
        </mxCell>
        <mxCell id="mmap-zone" value="" style="rounded=0;whiteSpace=wrap;html=1;fillColor=#e1d5e7;strokeColor=#9673a6;" parent="1" vertex="1">
          <mxGeometry x="200" y="120" width="460" height="580" as="geometry" />
        </mxCell>
        <mxCell id="mmap-title" value="&lt;b&gt;&lt;font style=&quot;font-size: 14px;&quot;&gt;Fichier mémoire-mappé (/tmp/v8_code_cache)&lt;/font&gt;&lt;/b&gt;" style="text;html=1;align=center;verticalAlign=middle;whiteSpace=wrap;rounded=0;" parent="1" vertex="1">
          <mxGeometry x="280" y="95" width="300" height="20" as="geometry" />
        </mxCell>
        <mxCell id="cache-header" value="&lt;b&gt;&lt;font style=&quot;font-size: 14px;&quot;&gt;CacheHeader&lt;/font&gt;&lt;/b&gt;&lt;br&gt;&lt;font style=&quot;font-size: 10px;&quot;&gt;magic_number, version&lt;br&gt;entry_count, next_offset&lt;/font&gt;" style="rounded=0;whiteSpace=wrap;html=1;fillColor=#ffe0b2;strokeColor=#d79b00;" parent="1" vertex="1">
          <mxGeometry x="220" y="130" width="420" height="50" as="geometry" />
        </mxCell>
        <mxCell id="entries-array" value="" style="rounded=0;whiteSpace=wrap;html=1;fillColor=#f8cecc;strokeColor=#b85450;" parent="1" vertex="1">
          <mxGeometry x="220" y="210" width="420" height="280" as="geometry" />
        </mxCell>
        <mxCell id="entries-title" value="&lt;b&gt;&lt;font style=&quot;font-size: 14px;&quot;&gt;Tableau CacheEntryHeader[1024]&lt;/font&gt;&lt;/b&gt;&lt;br&gt;&lt;font style=&quot;font-size: 11px;&quot;&gt;Recherche séquentielle O(n)&lt;/font&gt;" style="text;html=1;align=center;verticalAlign=middle;whiteSpace=wrap;rounded=0;" parent="1" vertex="1">
          <mxGeometry x="320" y="190" width="220" height="30" as="geometry" />
        </mxCell>
        <mxCell id="entry-0" value="&lt;font style=&quot;font-size: 11px;&quot;&gt;[0] key, offset, length, is_used, checksum&lt;/font&gt;" style="rounded=0;whiteSpace=wrap;html=1;fillColor=#bbdefb;strokeColor=#6c8ebf;" parent="1" vertex="1">
          <mxGeometry x="240" y="230" width="380" height="25" as="geometry" />
        </mxCell>
        <mxCell id="entry-1" value="&lt;font style=&quot;font-size: 11px;&quot;&gt;[1] key, offset, length, is_used, checksum&lt;/font&gt;" style="rounded=0;whiteSpace=wrap;html=1;fillColor=#bbdefb;strokeColor=#6c8ebf;" parent="1" vertex="1">
          <mxGeometry x="240" y="260" width="380" height="25" as="geometry" />
        </mxCell>
        <mxCell id="entry-2" value="&lt;font style=&quot;font-size: 11px;&quot;&gt;[2] key, offset, length, is_used, checksum&lt;/font&gt;" style="rounded=0;whiteSpace=wrap;html=1;fillColor=#bbdefb;strokeColor=#6c8ebf;" parent="1" vertex="1">
          <mxGeometry x="240" y="290" width="380" height="25" as="geometry" />
        </mxCell>
        <mxCell id="dots" value="&lt;font style=&quot;font-size: 16px;&quot;&gt;&lt;b&gt;...&lt;/b&gt;&lt;/font&gt;" style="text;html=1;align=center;verticalAlign=middle;whiteSpace=wrap;rounded=0;" parent="1" vertex="1">
          <mxGeometry x="410" y="325" width="60" height="30" as="geometry" />
        </mxCell>
        <mxCell id="entry-1023" value="&lt;font style=&quot;font-size: 11px;&quot;&gt;[1023] key, offset, length, is_used, checksum&lt;/font&gt;" style="rounded=0;whiteSpace=wrap;html=1;fillColor=#bbdefb;strokeColor=#6c8ebf;" parent="1" vertex="1">
          <mxGeometry x="240" y="450" width="380" height="25" as="geometry" />
        </mxCell>
        <mxCell id="data-area" value="" style="rounded=0;whiteSpace=wrap;html=1;fillColor=#d5e8d4;strokeColor=#82b366;" parent="1" vertex="1">
          <mxGeometry x="220" y="510" width="420" height="180" as="geometry" />
        </mxCell>
        <mxCell id="data-title" value="&lt;b&gt;&lt;font style=&quot;font-size: 14px;&quot;&gt;Zone de données&lt;/font&gt;&lt;/b&gt;&lt;br&gt;&lt;font style=&quot;font-size: 11px;&quot;&gt;Graphes sérialisés consécutifs&lt;/font&gt;" style="text;html=1;align=center;verticalAlign=middle;whiteSpace=wrap;rounded=0;" parent="1" vertex="1">
          <mxGeometry x="320" y="490" width="220" height="30" as="geometry" />
        </mxCell>
        <mxCell id="serialized-1" value="&lt;font style=&quot;font-size: 12px;&quot;&gt;Serialized Graph 1&lt;/font&gt;" style="rounded=0;whiteSpace=wrap;html=1;fillColor=#fff2cc;strokeColor=#d6b656;" parent="1" vertex="1">
          <mxGeometry x="240" y="530" width="120" height="30" as="geometry" />
        </mxCell>
        <mxCell id="serialized-2" value="&lt;font style=&quot;font-size: 12px;&quot;&gt;Serialized Graph 2&lt;/font&gt;" style="rounded=0;whiteSpace=wrap;html=1;fillColor=#fff2cc;strokeColor=#d6b656;" parent="1" vertex="1">
          <mxGeometry x="370" y="530" width="120" height="30" as="geometry" />
        </mxCell>
        <mxCell id="serialized-3" value="&lt;font style=&quot;font-size: 12px;&quot;&gt;Serialized Graph 3&lt;/font&gt;" style="rounded=0;whiteSpace=wrap;html=1;fillColor=#fff2cc;strokeColor=#d6b656;" parent="1" vertex="1">
          <mxGeometry x="500" y="530" width="120" height="30" as="geometry" />
        </mxCell>
        <mxCell id="data-dots" value="&lt;font style=&quot;font-size: 14px;&quot;&gt;&lt;b&gt;...&lt;/b&gt;&lt;/font&gt;" style="text;html=1;align=center;verticalAlign=middle;whiteSpace=wrap;rounded=0;" parent="1" vertex="1">
          <mxGeometry x="410" y="580" width="60" height="30" as="geometry" />
        </mxCell>
        <mxCell id="arrow-1" value="" style="endArrow=classic;html=1;rounded=0;strokeColor=#d79b00;strokeWidth=2;" parent="1" edge="1">
          <mxGeometry width="50" height="50" relative="1" as="geometry">
            <mxPoint x="280" y="285" as="sourcePoint" />
            <mxPoint x="280" y="530" as="targetPoint" />
            <Array as="points">
              <mxPoint x="180" y="285" />
              <mxPoint x="180" y="530" />
            </Array>
          </mxGeometry>
        </mxCell>
        <mxCell id="arrow-2" value="" style="endArrow=classic;html=1;rounded=0;strokeColor=#d79b00;strokeWidth=2;" parent="1" edge="1">
          <mxGeometry width="50" height="50" relative="1" as="geometry">
            <mxPoint x="430" y="285" as="sourcePoint" />
            <mxPoint x="430" y="530" as="targetPoint" />
            <Array as="points">
              <mxPoint x="720" y="285" />
              <mxPoint x="720" y="530" />
            </Array>
          </mxGeometry>
        </mxCell>
        <mxCell id="arrow-label-1" value="&lt;font style=&quot;font-size: 10px;&quot;&gt;offset&lt;/font&gt;" style="text;html=1;align=center;verticalAlign=middle;whiteSpace=wrap;rounded=0;fillColor=#fff2cc;strokeColor=#d6b656;" parent="1" vertex="1">
          <mxGeometry x="140" y="390" width="40" height="20" as="geometry" />
        </mxCell>
        <mxCell id="arrow-label-2" value="&lt;font style=&quot;font-size: 10px;&quot;&gt;offset&lt;/font&gt;" style="text;html=1;align=center;verticalAlign=middle;whiteSpace=wrap;rounded=0;fillColor=#fff2cc;strokeColor=#d6b656;" parent="1" vertex="1">
          <mxGeometry x="700" y="390" width="40" height="20" as="geometry" />
        </mxCell>
        <mxCell id="algo-box" value="&lt;b&gt;&lt;font style=&quot;font-size: 12px;&quot;&gt;Algorithme de recherche :&lt;/font&gt;&lt;/b&gt;&lt;br&gt;&lt;font style=&quot;font-size: 10px;&quot;&gt;1. Parcours séquentiel du tableau&lt;br&gt;2. Comparaison strncmp(entry.key, search_key)&lt;br&gt;3. Vérification is_used == true&lt;br&gt;4. Retour de l&#39;index ou -1&lt;/font&gt;" style="rounded=1;whiteSpace=wrap;html=1;fillColor=#f0f0f0;strokeColor=#666666;" parent="1" vertex="1">
          <mxGeometry x="30" y="450" width="220" height="80" as="geometry" />
        </mxCell>
        <mxCell id="complexity-box" value="&lt;b&gt;&lt;font style=&quot;font-size: 12px;&quot;&gt;Complexité :&lt;/font&gt;&lt;/b&gt;&lt;br&gt;&lt;font style=&quot;font-size: 10px;&quot;&gt;• Recherche : O(n)&lt;br&gt;• Insertion : O(n)&lt;br&gt;• Suppression : O(n)&lt;br&gt;• Limite : 1024 entrées max&lt;/font&gt;" style="rounded=1;whiteSpace=wrap;html=1;fillColor=#ffe0e0;strokeColor=#d79b00;" parent="1" vertex="1">
          <mxGeometry x="30" y="550" width="140" height="80" as="geometry" />
        </mxCell>
      </root>
    </mxGraphModel>
  </diagram>
</mxfile>
